<svg xmlns="http://www.w3.org/2000/svg" width="720" height="260" viewBox="0 0 720 260">
<rect width="100%" height="100%" fill="white"/>
<text x="20" y="30" font-family="sans-serif" font-size="18" font-weight="bold">Smoke placeholder success rates</text>
<text x="20" y="52" font-family="sans-serif" font-size="12" fill="#666">Pipeline validation only; not chemistry-aware model evidence.</text>
<text x="20" y="101" font-family="monospace" font-size="13">direct_regeneration</text>
<rect x="170" y="82" width="208" height="28" fill="#4c78a8"/>
<rect x="170" y="82" width="460" height="28" fill="none" stroke="#ccc"/>
<text x="640" y="101" font-family="sans-serif" font-size="13">0.45</text>
<text x="20" y="147" font-family="monospace" font-size="13">best_of_n</text>
<rect x="170" y="128" width="208" height="28" fill="#4c78a8"/>
<rect x="170" y="128" width="460" height="28" fill="none" stroke="#ccc"/>
<text x="640" y="147" font-family="sans-serif" font-size="13">0.45</text>
<text x="20" y="193" font-family="monospace" font-size="13">rerank_only</text>
<rect x="170" y="174" width="208" height="28" fill="#4c78a8"/>
<rect x="170" y="174" width="460" height="28" fill="none" stroke="#ccc"/>
<text x="640" y="193" font-family="sans-serif" font-size="13">0.45</text>
<text x="20" y="239" font-family="monospace" font-size="13">no_feedback_repair</text>
<rect x="170" y="220" width="208" height="28" fill="#4c78a8"/>
<rect x="170" y="220" width="460" height="28" fill="none" stroke="#ccc"/>
<text x="640" y="239" font-family="sans-serif" font-size="13">0.45</text>
<text x="20" y="285" font-family="monospace" font-size="13">feedback_geometry_refinement</text>
<rect x="170" y="266" width="208" height="28" fill="#4c78a8"/>
<rect x="170" y="266" width="460" height="28" fill="none" stroke="#ccc"/>
<text x="640" y="285" font-family="sans-serif" font-size="13">0.45</text>
<text x="20" y="331" font-family="monospace" font-size="13">feedback_learned_geometry_policy</text>
<rect x="170" y="312" width="208" height="28" fill="#4c78a8"/>
<rect x="170" y="312" width="460" height="28" fill="none" stroke="#ccc"/>
<text x="640" y="331" font-family="sans-serif" font-size="13">0.45</text>
<text x="20" y="377" font-family="monospace" font-size="13">feedback_kernel_geometry_policy</text>
<rect x="170" y="358" width="208" height="28" fill="#4c78a8"/>
<rect x="170" y="358" width="460" height="28" fill="none" stroke="#ccc"/>
<text x="640" y="377" font-family="sans-serif" font-size="13">0.45</text>
<text x="20" y="423" font-family="monospace" font-size="13">feedback_knn_geometry_policy</text>
<rect x="170" y="404" width="208" height="28" fill="#4c78a8"/>
<rect x="170" y="404" width="460" height="28" fill="none" stroke="#ccc"/>
<text x="640" y="423" font-family="sans-serif" font-size="13">0.45</text>
<text x="20" y="469" font-family="monospace" font-size="13">feedback_linear_refinement</text>
<rect x="170" y="450" width="208" height="28" fill="#4c78a8"/>
<rect x="170" y="450" width="460" height="28" fill="none" stroke="#ccc"/>
<text x="640" y="469" font-family="sans-serif" font-size="13">0.45</text>
</svg>
